# xmcd
#
# Track frame offsets:
#	150
#	16188
#	34597
#	50375
#	68404
#	88733
#	106919
#	121841
#	139611
#	157750
#	175752
#	192829
#
# Disc length: 3016 seconds
#
# Revision: 1
# Processed by: cddbd v1.4PL0 Copyright (c) Steve Scherf et al.
# Submitted via: audiograbber 1.82.01
#
DISCID=860bc60c
DTITLE=Wave On Wave - Pat Green
DYEAR=2003
DGENRE=Country
TTITLE0=Guy Like Me
TTITLE1=Poetry
TTITLE2=Wrapped
TTITLE3=Wave On Wave
TTITLE4=California
TTITLE5=Sing 'Til I Stop Crying
TTITLE6=All the Good Things Fade Away
TTITLE7=Run
TTITLE8=I'm Tired
TTITLE9=Eden's Gate
TTITLE10=Elvis
TTITLE11=If I Was The Devil
EXTD=
EXTT0=
EXTT1=
EXTT2=
EXTT3=
EXTT4=
EXTT5=
EXTT6=
EXTT7=
EXTT8=
EXTT9=
EXTT10=
EXTT11=
PLAYORDER=
